<svg width="647" height="655" viewBox="0 0 647 655" fill="none" xmlns="http://www.w3.org/2000/svg">
<path d="M380.302 600.766C366.397 492.497 352.466 420.396 329.659 420.396C305.758 420.396 262.921 492.089 220.186 569.551L199.713 606.664C198.552 608.769 195.347 607.412 196.049 605.114L208.925 562.993C227.139 503.398 249.984 421.89 238.153 402.127C236.881 400 234.667 397.554 228.79 397.554C207.9 397.554 164.26 427.757 104.886 470.414L71.3537 494.502C69.4265 495.887 67.121 493.359 68.6766 491.567L97.1553 458.763C104.633 450.145 111.871 441.921 118.76 434.084C156.839 390.802 189.718 353.409 184.081 337.029C176.641 315.406 99.6987 315.406 74.4118 315.406C67.8386 315.406 60.9491 315.473 53.7243 315.592L14.5453 316.265C12.2205 316.305 11.7105 313.015 13.9383 312.349L52.0731 300.952C117.33 281.441 204.604 250.889 209.058 210.871C212.215 182.527 177.236 145.409 98.9901 94.0594L65.2668 71.9299C63.3139 70.6484 64.7669 67.63 66.9867 68.3571L103.773 80.4078C114.155 83.8058 124.043 87.1964 133.438 90.4234C166.67 101.822 192.919 110.826 212.986 110.826H212.993C226.335 110.826 235.787 106.744 242.746 97.9927C259.429 77.0172 264.484 26.3816 259.157 -66.1754L257.497 -94.9805C257.365 -97.2656 260.554 -97.9443 261.364 -95.8037L271.247 -69.6998C307.219 25.3034 331.462 76.7942 356.483 76.7942C381.403 76.7867 414.079 25.8016 455.461 -50.7542L471.687 -80.7703C472.803 -82.8349 475.948 -81.6213 475.388 -79.342L466.88 -44.7091C449.02 27.9802 434.001 97.6061 444.927 114.663C446.23 116.7 448.482 119.043 454.341 119.043C454.347 119.043 454.347 119.043 454.347 119.043C471.985 119.035 506.369 98.1786 553.963 69.3215C563.111 63.7672 572.81 57.8932 583.053 51.7589L608.413 36.5586C610.357 35.3934 612.434 37.8501 610.962 39.5733L590.391 63.6482C543.069 119.02 510.001 161.172 515.505 199.428C520.161 231.794 553.755 264.629 621.226 302.773L640.002 313.389C641.801 314.406 641.063 317.152 638.996 317.13L618.43 316.908C613.28 316.849 608.352 316.819 603.614 316.819C558.05 316.819 530.119 319.697 522.179 334.374C511.981 353.238 529.98 400.506 562.675 482.407L570.82 502.804C571.612 504.788 569.159 506.465 567.597 505.007L553.014 491.39C497.93 439.936 465.735 417.986 445.37 417.986C414.699 417.986 405.81 473.604 392.835 600.52L389.031 637.742C388.79 640.107 385.361 640.151 385.058 637.794L380.302 600.766Z" fill="url(#paint0_radial_3678_6103)"/>
<defs>
<radialGradient id="paint0_radial_3678_6103" cx="0" cy="0" r="1" gradientUnits="userSpaceOnUse" gradientTransform="translate(343.883 266) rotate(93.0167) scale(389.54 330.198)">
<stop stop-color="#985AFF"/>
<stop offset="1" stop-color="#6000FF"/>
</radialGradient>
</defs>
</svg>
