<svg width="429" height="107" viewBox="0 0 429 107" fill="none" xmlns="http://www.w3.org/2000/svg">
<path d="M428.933 6.72713V0H0V6.72713C6.90909 6.72713 12.5096 12.3233 12.5096 19.2269C12.5096 26.1306 6.90909 31.7267 0 31.7267V75.2798C6.90909 75.2798 12.5031 80.876 12.5096 87.7731V87.3874H16.4353V88.1653H12.5096V87.7796C12.5096 94.6833 6.90909 100.273 0 100.273V107H428.933V100.273C422.024 100.273 416.423 94.6767 416.423 87.7731C416.423 80.8694 422.024 75.2733 428.933 75.2733V31.7267C422.024 31.7267 416.43 26.1306 416.423 19.2335V19.6192H412.498V18.8412H416.423V19.2269C416.423 12.3233 422.024 6.73367 428.933 6.73367V6.72713ZM31.9676 88.1653H24.2015V87.3874H31.9676V88.1653ZM47.5 88.1653H39.7338V87.3874H47.5V88.1653ZM63.0324 88.1653H55.2662V87.3874H63.0324V88.1653ZM78.5582 88.1653H70.792V87.3874H78.5582V88.1653ZM94.0906 88.1653H86.3244V87.3874H94.0906V88.1653ZM109.623 88.1653H101.857V87.3874H109.623V88.1653ZM125.155 88.1653H117.389V87.3874H125.155V88.1653ZM140.688 88.1653H132.922V87.3874H140.688V88.1653ZM156.22 88.1653H148.454V87.3874H156.22V88.1653ZM171.752 88.1653H163.986V87.3874H171.752V88.1653ZM187.285 88.1653H179.519V87.3874H187.285V88.1653ZM202.817 88.1653H195.051V87.3874H202.817V88.1653ZM218.35 88.1653H210.583V87.3874H218.35V88.1653ZM233.882 88.1653H226.116V87.3874H233.882V88.1653ZM249.414 88.1653H241.648V87.3874H249.414V88.1653ZM264.947 88.1653H257.18V87.3874H264.947V88.1653ZM280.479 88.1653H272.713V87.3874H280.479V88.1653ZM296.011 88.1653H288.245V87.3874H296.011V88.1653ZM311.537 88.1653H303.771V87.3874H311.537V88.1653ZM327.07 88.1653H319.303V87.3874H327.07V88.1653ZM342.602 88.1653H334.836V87.3874H342.602V88.1653ZM358.134 88.1653H350.368V87.3874H358.134V88.1653ZM373.667 88.1653H365.901V87.3874H373.667V88.1653ZM389.199 88.1653H381.433V87.3874H389.199V88.1653ZM404.731 88.1653H396.965V87.3874H404.731V88.1653ZM416.423 88.1653H412.498V87.3874H416.423V88.1653ZM396.965 18.8412H404.731V19.6192H396.965V18.8412ZM381.433 18.8412H389.199V19.6192H381.433V18.8412ZM365.901 18.8412H373.667V19.6192H365.901V18.8412ZM350.368 18.8412H358.134V19.6192H350.368V18.8412ZM334.836 18.8412H342.602V19.6192H334.836V18.8412ZM319.303 18.8412H327.07V19.6192H319.303V18.8412ZM303.771 18.8412H311.537V19.6192H303.771V18.8412ZM288.245 18.8412H296.011V19.6192H288.245V18.8412ZM272.713 18.8412H280.479V19.6192H272.713V18.8412ZM257.18 18.8412H264.947V19.6192H257.18V18.8412ZM241.648 18.8412H249.414V19.6192H241.648V18.8412ZM226.116 18.8412H233.882V19.6192H226.116V18.8412ZM210.583 18.8412H218.35V19.6192H210.583V18.8412ZM195.051 18.8412H202.817V19.6192H195.051V18.8412ZM179.519 18.8412H187.285V19.6192H179.519V18.8412ZM163.986 18.8412H171.752V19.6192H163.986V18.8412ZM148.454 18.8412H156.22V19.6192H148.454V18.8412ZM132.922 18.8412H140.688V19.6192H132.922V18.8412ZM117.389 18.8412H125.155V19.6192H117.389V18.8412ZM101.857 18.8412H109.623V19.6192H101.857V18.8412ZM86.3244 18.8412H94.0906V19.6192H86.3244V18.8412ZM70.7986 18.8412H78.5648V19.6192H70.7986V18.8412ZM55.2662 18.8412H63.0324V19.6192H55.2662V18.8412ZM39.7338 18.8412H47.5V19.6192H39.7338V18.8412ZM24.2015 18.8412H31.9676V19.6192H24.2015V18.8412ZM12.5096 18.8412H16.4353V19.6192H12.5096V18.8412Z" fill="#FF00A6"/>
</svg>
