<svg width="1512" height="161" viewBox="0 0 1512 161" fill="none" xmlns="http://www.w3.org/2000/svg">
<g clip-path="url(#clip0_3678_6147)">
<path d="M1519.96 64.9916L1520.27 56.799L-8.3916 0L-8.69601 8.19265C-0.288393 8.50504 6.27364 15.5735 5.96125 23.9811L5.979 23.5034L10.7561 23.6809L10.7208 24.6284L5.94379 24.4509L5.96154 23.9732C5.64915 32.3808 -1.41934 38.9428 -9.82696 38.6304L-12.2456 103.726L9.76861 104.544C10.081 96.1361 17.1495 89.5741 25.5571 89.8865C33.9647 90.1989 40.5268 97.2674 40.2144 105.675L63.6299 106.545C63.9423 98.1374 71.0108 91.5754 79.4184 91.8878C87.826 92.2001 94.388 99.2686 94.0756 107.676L117.491 108.546C117.804 100.139 124.872 93.5766 133.28 93.889C141.687 94.2014 148.249 101.27 147.937 109.678L171.352 110.548C171.665 102.14 178.733 95.5779 187.141 95.8903C195.549 96.2027 202.111 103.271 201.798 111.679L225.214 112.549C225.526 104.141 232.595 97.5792 241.002 97.8916C249.41 98.204 255.972 105.272 255.659 113.68L279.075 114.55C279.387 106.142 286.456 99.5805 294.864 99.8929C303.271 100.205 309.833 107.274 309.521 115.681L332.936 116.551C333.249 108.144 340.317 101.582 348.725 101.894C357.132 102.207 363.694 109.275 363.382 117.683L386.798 118.553C387.11 110.145 394.178 103.583 402.586 103.895C410.994 104.208 417.556 111.276 417.243 119.684L440.659 120.554C440.971 112.146 448.04 105.584 456.447 105.897C464.855 106.209 471.417 113.278 471.105 121.685L494.52 122.555C494.833 114.148 501.901 107.586 510.309 107.898C518.716 108.21 525.278 115.279 524.966 123.686L548.381 124.556C548.694 116.149 555.762 109.587 564.17 109.899C572.578 110.212 579.14 117.28 578.827 125.688L602.243 126.558C602.555 118.15 609.624 111.588 618.031 111.901C626.439 112.213 633.001 119.281 632.688 127.689L656.104 128.559C656.416 120.151 663.485 113.589 671.892 113.902C680.3 114.214 686.862 121.283 686.55 129.69L709.965 130.56C710.278 122.153 717.346 115.591 725.754 115.903C734.161 116.215 740.723 123.284 740.411 131.692L763.827 132.562C764.139 124.154 771.207 117.592 779.615 117.904C788.023 118.217 794.585 125.285 794.272 133.693L817.688 134.563C818 126.155 825.069 119.593 833.476 119.906C841.884 120.218 848.446 127.287 848.134 135.694L871.549 136.564C871.862 128.157 878.93 121.595 887.338 121.907C895.745 122.219 902.307 129.288 901.995 137.695L925.41 138.565C925.723 130.158 932.791 123.596 941.199 123.908C949.606 124.221 956.168 131.289 955.856 139.697L979.272 140.567C979.584 132.159 986.653 125.597 995.06 125.909C1003.47 126.222 1010.03 133.29 1009.72 141.698L1033.13 142.568C1033.45 134.16 1040.51 127.598 1048.92 127.911C1057.33 128.223 1063.89 135.292 1063.58 143.699L1086.99 144.569C1087.31 136.162 1094.38 129.6 1102.78 129.912C1111.19 130.224 1117.75 137.293 1117.44 145.701L1140.86 146.571C1141.17 138.163 1148.24 131.601 1156.64 131.913C1165.05 132.226 1171.61 139.294 1171.3 147.702L1194.72 148.572C1195.03 140.164 1202.1 133.602 1210.51 133.915C1218.91 134.227 1225.47 141.295 1225.16 149.703L1248.58 150.573C1248.89 142.165 1255.96 135.603 1264.37 135.916C1272.77 136.228 1279.34 143.297 1279.02 151.704L1302.44 152.574C1302.75 144.167 1309.82 137.605 1318.23 137.917C1326.64 138.23 1333.2 145.298 1332.89 153.706L1356.3 154.576C1356.61 146.168 1363.68 139.606 1372.09 139.918C1380.5 140.231 1387.06 147.299 1386.75 155.707L1410.16 156.577C1410.47 148.169 1417.54 141.607 1425.95 141.92C1434.36 142.232 1440.92 149.301 1440.61 157.708L1464.02 158.578C1464.34 150.171 1471.4 143.609 1479.81 143.921C1488.22 144.233 1494.78 151.302 1494.47 159.709L1516.48 160.527L1518.9 95.44C1510.49 95.1277 1503.94 88.0674 1504.24 79.6595L1504.23 80.1293L1499.45 79.9518L1499.48 79.0043L1504.26 79.1818L1504.24 79.6515C1504.56 71.2519 1511.62 64.6899 1520.03 65.0023L1519.96 64.9916ZM29.9243 25.3499L20.3224 24.9931L20.3576 24.0457L29.9595 24.4024L29.9243 25.3499ZM49.136 26.0637L39.5341 25.707L39.5694 24.7595L49.1712 25.1163L49.136 26.0637ZM68.3477 26.7776L58.7459 26.4208L58.7811 25.4733L68.383 25.8301L68.3477 26.7776ZM87.5515 27.4911L77.9496 27.1343L77.9848 26.1869L87.5867 26.5436L87.5515 27.4911ZM106.763 28.2049L97.1613 27.8482L97.1965 26.9007L106.798 27.2575L106.763 28.2049ZM125.967 28.9185L116.365 28.5617L116.4 27.6142L126.002 27.971L125.967 28.9185ZM145.179 29.6323L135.577 29.2755L135.612 28.3281L145.214 28.6848L145.179 29.6323ZM164.39 30.3461L154.789 29.9894L154.824 29.0419L164.426 29.3987L164.39 30.3461ZM183.594 31.0597L173.992 30.7029L174.027 29.7554L183.629 30.1122L183.594 31.0597ZM202.806 31.7735L193.204 31.4167L193.239 30.4693L202.841 30.826L202.806 31.7735ZM222.01 32.487L212.408 32.1303L212.443 31.1828L222.045 31.5396L222.01 32.487ZM241.221 33.2009L231.619 32.8441L231.655 31.8966L241.257 32.2534L241.221 33.2009ZM260.433 33.9147L250.831 33.5579L250.866 32.6105L260.468 32.9673L260.433 33.9147ZM279.637 34.6282L270.035 34.2715L270.07 33.324L279.672 33.6808L279.637 34.6282ZM298.849 35.3421L289.247 34.9853L289.282 34.0379L298.884 34.3946L298.849 35.3421ZM318.052 36.0556L308.45 35.6988L308.486 34.7514L318.088 35.1082L318.052 36.0556ZM337.264 36.7694L327.662 36.4127L327.697 35.4652L337.299 35.822L337.264 36.7694ZM356.476 37.4833L346.874 37.1265L346.909 36.1791L356.511 36.5358L356.476 37.4833ZM375.679 38.1968L366.078 37.84L366.113 36.8926L375.715 37.2494L375.679 38.1968ZM394.891 38.9106L385.289 38.5539L385.325 37.6064L394.926 37.9632L394.891 38.9106ZM414.095 39.6242L404.493 39.2674L404.528 38.32L414.13 38.6767L414.095 39.6242ZM433.307 40.338L423.705 39.9812L423.74 39.0338L433.342 39.3906L433.307 40.338ZM452.518 41.0518L442.917 40.6951L442.952 39.7476L452.554 40.1044L452.518 41.0518ZM471.722 41.7654L462.12 41.4086L462.156 40.4612L471.757 40.8179L471.722 41.7654ZM490.934 42.4792L481.332 42.1224L481.367 41.175L490.969 41.5318L490.934 42.4792ZM510.138 43.1928L500.536 42.836L500.571 41.8885L510.173 42.2453L510.138 43.1928ZM529.349 43.9066L519.747 43.5498L519.783 42.6024L529.385 42.9591L529.349 43.9066ZM548.561 44.6204L538.959 44.2637L538.994 43.3162L548.596 43.673L548.561 44.6204ZM567.765 45.334L558.163 44.9772L558.198 44.0297L567.8 44.3865L567.765 45.334ZM586.977 46.0478L577.375 45.691L577.41 44.7436L587.012 45.1003L586.977 46.0478ZM606.18 46.7613L596.578 46.4046L596.614 45.4571L606.216 45.8139L606.18 46.7613ZM625.392 47.4752L615.79 47.1184L615.825 46.1709L625.427 46.5277L625.392 47.4752ZM644.604 48.189L635.002 47.8322L635.037 46.8848L644.639 47.2415L644.604 48.189ZM663.808 48.9025L654.206 48.5458L654.241 47.5983L663.843 47.9551L663.808 48.9025ZM683.019 49.6164L673.417 49.2596L673.453 48.3121L683.054 48.6689L683.019 49.6164ZM702.223 50.3299L692.621 49.9731L692.656 49.0257L702.258 49.3825L702.223 50.3299ZM721.435 51.0437L711.833 50.687L711.868 49.7395L721.47 50.0963L721.435 51.0437ZM740.646 51.7576L731.045 51.4008L731.08 50.4534L740.682 50.8101L740.646 51.7576ZM759.85 52.4711L750.248 52.1143L750.283 51.1669L759.885 51.5237L759.85 52.4711ZM779.062 53.1849L769.46 52.8282L769.495 51.8807L779.097 52.2375L779.062 53.1849ZM798.266 53.8985L788.664 53.5417L788.699 52.5943L798.301 52.951L798.266 53.8985ZM817.477 54.6123L807.875 54.2555L807.911 53.3081L817.513 53.6649L817.477 54.6123ZM836.689 55.3261L827.087 54.9694L827.122 54.0219L836.724 54.3787L836.689 55.3261ZM855.893 56.0397L846.291 55.6829L846.326 54.7355L855.928 55.0922L855.893 56.0397ZM875.105 56.7535L865.503 56.3967L865.538 55.4493L875.14 55.8061L875.105 56.7535ZM894.308 57.4671L884.706 57.1103L884.742 56.1628L894.344 56.5196L894.308 57.4671ZM913.52 58.1809L903.918 57.8241L903.953 56.8767L913.555 57.2334L913.52 58.1809ZM932.732 58.8947L923.13 58.5379L923.165 57.5905L932.767 57.9473L932.732 58.8947ZM951.936 59.6083L942.334 59.2515L942.369 58.304L951.971 58.6608L951.936 59.6083ZM971.147 60.3221L961.545 59.9653L961.581 59.0179L971.182 59.3746L971.147 60.3221ZM990.351 61.0356L980.749 60.6789L980.784 59.7314L990.386 60.0882L990.351 61.0356ZM1009.56 61.7495L999.961 61.3927L999.996 60.4452L1009.6 60.802L1009.56 61.7495ZM1028.77 62.463L1019.16 62.1062L1019.2 61.1588L1028.8 61.5155L1028.77 62.463ZM1047.98 63.1768L1038.38 62.8201L1038.41 61.8726L1048.01 62.2294L1047.98 63.1768ZM1067.19 63.8907L1057.59 63.5339L1057.62 62.5864L1067.23 62.9432L1067.19 63.8907ZM1086.39 64.6042L1076.79 64.2474L1076.83 63.3L1086.43 63.6567L1086.39 64.6042ZM1105.61 65.318L1096 64.9613L1096.04 64.0138L1105.64 64.3706L1105.61 65.318ZM1124.81 66.0316L1115.21 65.6748L1115.24 64.7273L1124.84 65.0841L1124.81 66.0316ZM1144.02 66.7454L1134.42 66.3886L1134.45 65.4412L1144.06 65.798L1144.02 66.7454ZM1163.23 67.4592L1153.63 67.1025L1153.67 66.155L1163.27 66.5118L1163.23 67.4592ZM1182.44 68.1728L1172.83 67.816L1172.87 66.8686L1182.47 67.2253L1182.44 68.1728ZM1201.65 68.8866L1192.05 68.5298L1192.08 67.5824L1201.68 67.9392L1201.65 68.8866ZM1220.85 69.6001L1211.25 69.2434L1211.29 68.2959L1220.89 68.6527L1220.85 69.6001ZM1240.06 70.314L1230.46 69.9572L1230.5 69.0098L1240.1 69.3665L1240.06 70.314ZM1259.28 71.0278L1249.67 70.671L1249.71 69.7236L1259.31 70.0804L1259.28 71.0278ZM1278.48 71.7413L1268.88 71.3846L1268.91 70.4371L1278.51 70.7939L1278.48 71.7413ZM1297.69 72.4552L1288.09 72.0984L1288.12 71.151L1297.73 71.5077L1297.69 72.4552ZM1316.89 73.1687L1307.29 72.8119L1307.33 71.8645L1316.93 72.2213L1316.89 73.1687ZM1336.11 73.8825L1326.5 73.5258L1326.54 72.5783L1336.14 72.9351L1336.11 73.8825ZM1355.32 74.5964L1345.72 74.2396L1345.75 73.2922L1355.35 73.6489L1355.32 74.5964ZM1374.52 75.3099L1364.92 74.9531L1364.96 74.0057L1374.56 74.3625L1374.52 75.3099ZM1393.73 76.0237L1384.13 75.667L1384.17 74.7195L1393.77 75.0763L1393.73 76.0237ZM1412.94 76.7373L1403.34 76.3805L1403.37 75.4331L1412.97 75.7898L1412.94 76.7373ZM1432.15 77.4511L1422.55 77.0943L1422.58 76.1469L1432.18 76.5037L1432.15 77.4511ZM1451.36 78.165L1441.76 77.8082L1441.79 76.8607L1451.4 77.2175L1451.36 78.165ZM1470.56 78.8785L1460.96 78.5217L1461 77.5743L1470.6 77.931L1470.56 78.8785ZM1489.78 79.5923L1480.17 79.2356L1480.21 78.2881L1489.81 78.6449L1489.78 79.5923Z" fill="#272727"/>
</g>
<defs>
<clipPath id="clip0_3678_6147">
<rect width="1529.71" height="103.805" fill="white" transform="translate(-8.3916) rotate(2.12791)"/>
</clipPath>
</defs>
</svg>
