<svg width="1512" height="197" viewBox="0 0 1512 197" fill="none" xmlns="http://www.w3.org/2000/svg">
<g clip-path="url(#clip0_3678_6144)">
<path d="M1530.52 8.35101L1530.04 1.38491e-05L-28.1665 90.6051L-27.6809 98.9561C-19.1108 98.4578 -11.7599 105.001 -11.2615 113.571L-11.2898 113.084L-6.42045 112.801L-6.3643 113.767L-11.2337 114.05L-11.262 113.563C-10.7637 122.133 -17.3067 129.484 -25.8768 129.982L-22.0186 196.336L0.421189 195.031C-0.0771396 186.461 6.46591 179.11 15.036 178.612C23.6062 178.113 30.9571 184.656 31.4554 193.226L55.3235 191.839C54.8252 183.268 61.3683 175.917 69.9384 175.419C78.5085 174.921 85.8594 181.464 86.3578 190.034L110.226 188.646C109.728 180.076 116.271 172.725 124.841 172.227C133.411 171.728 140.762 178.271 141.26 186.842L165.128 185.454C164.63 176.884 171.173 169.533 179.743 169.034C188.313 168.536 195.664 175.079 196.162 183.649L220.031 182.261C219.532 173.691 226.075 166.34 234.645 165.842C243.216 165.344 250.566 171.887 251.065 180.457L274.933 179.069C274.435 170.499 280.978 163.148 289.548 162.649C298.118 162.151 305.469 168.694 305.967 177.264L329.835 175.876C329.337 167.306 335.88 159.955 344.45 159.457C353.02 158.959 360.371 165.502 360.869 174.072L384.738 172.684C384.239 164.114 390.782 156.763 399.352 156.265C407.923 155.766 415.273 162.309 415.772 170.879L439.64 169.492C439.142 160.921 445.685 153.571 454.255 153.072C462.825 152.574 470.176 159.117 470.674 167.687L494.542 166.299C494.044 157.729 500.587 150.378 509.157 149.88C517.727 149.381 525.078 155.925 525.576 164.495L549.445 163.107C548.946 154.537 555.489 147.186 564.059 146.687C572.63 146.189 579.981 152.732 580.479 161.302L604.347 159.914C603.849 151.344 610.392 143.993 618.962 143.495C627.532 142.997 634.883 149.54 635.381 158.11L659.249 156.722C658.751 148.152 665.294 140.801 673.864 140.303C682.434 139.804 689.785 146.347 690.284 154.917L714.152 153.53C713.653 144.959 720.196 137.608 728.766 137.11C737.337 136.612 744.688 143.155 745.186 151.725L769.054 150.337C768.556 141.767 775.099 134.416 783.669 133.918C792.239 133.419 799.59 139.962 800.088 148.533L823.956 147.145C823.458 138.575 830.001 131.224 838.571 130.725C847.141 130.227 854.492 136.77 854.991 145.34L878.859 143.952C878.36 135.382 884.903 128.031 893.474 127.533C902.044 127.035 909.395 133.578 909.893 142.148L933.761 140.76C933.263 132.19 939.806 124.839 948.376 124.341C956.946 123.842 964.297 130.385 964.795 138.955L988.663 137.567C988.165 128.997 994.708 121.646 1003.28 121.148C1011.85 120.65 1019.2 127.193 1019.7 135.763L1043.57 134.375C1043.07 125.805 1049.61 118.454 1058.18 117.956C1066.75 117.457 1074.1 124 1074.6 132.571L1098.47 131.183C1097.97 122.613 1104.51 115.262 1113.08 114.763C1121.65 114.265 1129 120.808 1129.5 129.378L1153.37 127.99C1152.87 119.42 1159.42 112.069 1167.99 111.571C1176.56 111.073 1183.91 117.616 1184.4 126.186L1208.27 124.798C1207.77 116.228 1214.32 108.877 1222.89 108.378C1231.46 107.88 1238.81 114.423 1239.31 122.993L1263.18 121.605C1262.68 113.035 1269.22 105.684 1277.79 105.186C1286.36 104.688 1293.71 111.231 1294.21 119.801L1318.08 118.413C1317.58 109.843 1324.12 102.492 1332.69 101.994C1341.26 101.495 1348.61 108.038 1349.11 116.608L1372.98 115.221C1372.48 106.65 1379.02 99.2995 1387.59 98.8012C1396.16 98.3029 1403.52 104.846 1404.01 113.416L1427.88 112.028C1427.38 103.458 1433.93 96.1071 1442.5 95.6088C1451.07 95.1105 1458.42 101.653 1458.92 110.224L1482.78 108.836C1482.29 100.266 1488.83 92.9147 1497.4 92.4164C1505.97 91.918 1513.32 98.4611 1513.82 107.031L1536.26 105.726L1532.4 39.381C1523.83 39.8793 1516.49 33.3439 1515.98 24.7743L1516.01 25.2531L1511.14 25.5362L1511.08 24.5705L1515.95 24.2873L1515.98 24.7662C1515.48 16.2041 1522.03 8.85321 1530.6 8.35488L1530.52 8.35101ZM13.2111 112.637L3.42364 113.206L3.36749 112.24L13.155 111.671L13.2111 112.637ZM32.7942 111.498L23.0067 112.067L22.9505 111.101L32.738 110.532L32.7942 111.498ZM52.3772 110.359L42.5898 110.928L42.5336 109.962L52.3211 109.393L52.3772 110.359ZM71.9522 109.221L62.1647 109.79L62.1085 108.824L71.896 108.255L71.9522 109.221ZM91.5352 108.082L81.7477 108.651L81.6916 107.686L91.4791 107.116L91.5352 108.082ZM111.11 106.944L101.323 107.513L101.267 106.547L111.054 105.978L111.11 106.944ZM130.693 105.805L120.906 106.374L120.85 105.409L130.637 104.84L130.693 105.805ZM150.276 104.667L140.489 105.236L140.433 104.27L150.22 103.701L150.276 104.667ZM169.851 103.528L160.064 104.097L160.008 103.132L169.795 102.563L169.851 103.528ZM189.434 102.39L179.647 102.959L179.591 101.993L189.378 101.424L189.434 102.39ZM209.009 101.251L199.222 101.821L199.166 100.855L208.953 100.286L209.009 101.251ZM228.592 100.113L218.805 100.682L218.749 99.7161L228.536 99.147L228.592 100.113ZM248.175 98.974L238.388 99.5431L238.332 98.5774L248.119 98.0083L248.175 98.974ZM267.75 97.8358L257.963 98.4049L257.907 97.4391L267.694 96.87L267.75 97.8358ZM287.333 96.6971L277.546 97.2662L277.49 96.3004L287.277 95.7313L287.333 96.6971ZM306.908 95.5589L297.121 96.128L297.065 95.1622L306.852 94.5931L306.908 95.5589ZM326.491 94.4202L316.704 94.9893L316.648 94.0235L326.435 93.4544L326.491 94.4202ZM346.074 93.2815L336.287 93.8506L336.231 92.8848L346.018 92.3157L346.074 93.2815ZM365.649 92.1432L355.862 92.7124L355.806 91.7466L365.593 91.1775L365.649 92.1432ZM385.232 91.0045L375.445 91.5737L375.389 90.6079L385.176 90.0388L385.232 91.0045ZM404.807 89.8663L395.02 90.4354L394.964 89.4697L404.751 88.9006L404.807 89.8663ZM424.39 88.7276L414.603 89.2967L414.547 88.331L424.334 87.7619L424.39 88.7276ZM443.973 87.5889L434.186 88.158L434.13 87.1923L443.917 86.6232L443.973 87.5889ZM463.548 86.4507L453.761 87.0198L453.705 86.054L463.492 85.4849L463.548 86.4507ZM483.131 85.312L473.344 85.8811L473.288 84.9154L483.075 84.3462L483.131 85.312ZM502.706 84.1738L492.919 84.7429L492.863 83.7771L502.65 83.208L502.706 84.1738ZM522.289 83.0351L512.502 83.6042L512.446 82.6384L522.233 82.0693L522.289 83.0351ZM541.872 81.8964L532.085 82.4655L532.029 81.4997L541.816 80.9306L541.872 81.8964ZM561.447 80.7581L551.66 81.3273L551.604 80.3615L561.391 79.7924L561.447 80.7581ZM581.03 79.6194L571.243 80.1886L571.187 79.2228L580.974 78.6537L581.03 79.6194ZM600.605 78.4812L590.818 79.0503L590.762 78.0846L600.549 77.5155L600.605 78.4812ZM620.188 77.3425L610.401 77.9116L610.345 76.9459L620.132 76.3768L620.188 77.3425ZM639.771 76.2038L629.984 76.7729L629.928 75.8072L639.715 75.2381L639.771 76.2038ZM659.346 75.0656L649.559 75.6347L649.503 74.669L659.29 74.0998L659.346 75.0656ZM678.929 73.9269L669.142 74.496L669.086 73.5303L678.873 72.9611L678.929 73.9269ZM698.504 72.7887L688.717 73.3578L688.661 72.392L698.448 71.8229L698.504 72.7887ZM718.087 71.65L708.3 72.2191L708.244 71.2533L718.031 70.6842L718.087 71.65ZM737.67 70.5113L727.883 71.0804L727.827 70.1146L737.614 69.5455L737.67 70.5113ZM757.245 69.3731L747.458 69.9422L747.402 68.9764L757.189 68.4073L757.245 69.3731ZM776.828 68.2344L767.041 68.8035L766.985 67.8377L776.772 67.2686L776.828 68.2344ZM796.403 67.0961L786.616 67.6652L786.56 66.6995L796.347 66.1304L796.403 67.0961ZM815.986 65.9574L806.199 66.5265L806.143 65.5608L815.93 64.9917L815.986 65.9574ZM835.57 64.8187L825.782 65.3878L825.726 64.4221L835.513 63.853L835.57 64.8187ZM855.144 63.6805L845.357 64.2496L845.301 63.2839L855.088 62.7147L855.144 63.6805ZM874.728 62.5418L864.94 63.1109L864.884 62.1452L874.671 61.576L874.728 62.5418ZM894.302 61.4036L884.515 61.9727L884.459 61.0069L894.246 60.4378L894.302 61.4036ZM913.885 60.2649L904.098 60.834L904.042 59.8682L913.829 59.2991L913.885 60.2649ZM933.469 59.1262L923.681 59.6953L923.625 58.7295L933.412 58.1604L933.469 59.1262ZM953.044 57.988L943.256 58.5571L943.2 57.5913L952.987 57.0222L953.044 57.988ZM972.627 56.8493L962.839 57.4184L962.783 56.4526L972.57 55.8835L972.627 56.8493ZM992.202 55.711L982.414 56.2801L982.358 55.3144L992.145 54.7453L992.202 55.711ZM1011.78 54.5723L1002 55.1415L1001.94 54.1757L1011.73 53.6066L1011.78 54.5723ZM1031.36 53.4341L1021.57 54.0032L1021.52 53.0375L1031.3 52.4683L1031.36 53.4341ZM1050.94 52.2954L1041.16 52.8645L1041.1 51.8988L1050.89 51.3296L1050.94 52.2954ZM1070.53 51.1567L1060.74 51.7258L1060.68 50.7601L1070.47 50.1909L1070.53 51.1567ZM1090.1 50.0185L1080.31 50.5876L1080.26 49.6218L1090.04 49.0527L1090.1 50.0185ZM1109.68 48.8798L1099.9 49.4489L1099.84 48.4831L1109.63 47.914L1109.68 48.8798ZM1129.26 47.7416L1119.47 48.3107L1119.41 47.3449L1129.2 46.7758L1129.26 47.7416ZM1148.84 46.6029L1139.05 47.172L1139 46.2062L1148.79 45.6371L1148.84 46.6029ZM1168.42 45.4642L1158.64 46.0333L1158.58 45.0675L1168.37 44.4984L1168.42 45.4642ZM1188 44.3259L1178.21 44.8951L1178.16 43.9293L1187.94 43.3602L1188 44.3259ZM1207.58 43.1872L1197.8 43.7563L1197.74 42.7906L1207.53 42.2215L1207.58 43.1872ZM1227.16 42.049L1217.37 42.6181L1217.31 41.6524L1227.1 41.0832L1227.16 42.049ZM1246.74 40.9103L1236.95 41.4794L1236.9 40.5137L1246.68 39.9445L1246.74 40.9103ZM1266.32 39.7716L1256.54 40.3407L1256.48 39.375L1266.27 38.8058L1266.32 39.7716ZM1285.9 38.6334L1276.11 39.2025L1276.05 38.2367L1285.84 37.6676L1285.9 38.6334ZM1305.48 37.4947L1295.69 38.0638L1295.64 37.098L1305.43 36.5289L1305.48 37.4947ZM1325.06 36.3565L1315.27 36.9256L1315.21 35.9598L1325 35.3907L1325.06 36.3565ZM1344.64 35.2178L1334.85 35.7869L1334.8 34.8211L1344.58 34.252L1344.64 35.2178ZM1364.22 34.0791L1354.44 34.6482L1354.38 33.6824L1364.17 33.1133L1364.22 34.0791ZM1383.8 32.9408L1374.01 33.51L1373.95 32.5442L1383.74 31.9751L1383.8 32.9408ZM1403.38 31.8021L1393.59 32.3713L1393.54 31.4055L1403.32 30.8364L1403.38 31.8021ZM1422.96 30.6639L1413.17 31.233L1413.11 30.2673L1422.9 29.6982L1422.96 30.6639ZM1442.54 29.5252L1432.75 30.0943L1432.7 29.1286L1442.48 28.5595L1442.54 29.5252ZM1462.12 28.3865L1452.33 28.9556L1452.28 27.9899L1462.07 27.4208L1462.12 28.3865ZM1481.7 27.2483L1471.91 27.8174L1471.85 26.8516L1481.64 26.2825L1481.7 27.2483ZM1501.28 26.1096L1491.49 26.6787L1491.44 25.7129L1501.22 25.1438L1501.28 26.1096Z" fill="#6000FF"/>
</g>
<defs>
<clipPath id="clip0_3678_6144">
<rect width="1560.84" height="105.917" fill="white" transform="translate(-28.1665 90.6051) rotate(-3.32784)"/>
</clipPath>
</defs>
</svg>
